<svg id="D10" xmlns="http://www.w3.org/2000/svg" viewBox="0 0 777.75 808.51"><defs><style>.cls-1{fill:#999;}</style></defs><path id="fill" class="cls-1" d="M432.76,844.74a13.34,13.34,0,0,1-10.36-4.07c-1.75-1.65-3.45-3.34-5.17-5q-16.71-16.2-33.42-32.39-14.13-13.68-28.29-27.33l-28.46-27.51-28.63-27.67-28.29-27.33-28.81-27.84-28.12-27.17-28.63-27.67-28.29-27.33-29-28-27.95-27-29-28Q59.68,490.07,49,479.79A15.41,15.41,0,0,1,45.4,475c-2.36-5.3-1.54-10.18,2.16-14.53,3.27-3.84,6.69-7.54,10-11.29l25.88-29,20.61-23.08,28.76-32.19,44.26-49.55,44.26-49.55,44.1-49.36,44.26-49.55q22.13-24.78,44.26-49.55L398.09,68q11.58-13,23.15-25.95c2.22-2.5,4.64-4.66,8-5.35,5.28-1.08,10.06-.18,13.83,3.94,5.34,5.84,10.61,11.75,15.89,17.64q8.88,9.93,17.72,19.87,17.66,19.77,35.3,39.54,15.18,17,30.38,34,18.95,21.19,37.84,42.42,12.94,14.49,25.92,28.95,19.25,21.56,38.48,43.13,16.77,18.78,33.58,37.54,21.33,23.88,42.63,47.78Q734,366.24,747.23,381q18.93,21.19,37.85,42.42,14.68,16.46,29.42,32.89c1.28,1.43,2.57,2.85,3.81,4.32,4.69,5.57,4.52,13.12-.68,18.24-9.46,9.31-19,18.48-28.59,27.71l-7.91,7.69Q772,523.11,762.88,532q-21.46,20.77-42.94,41.51l-28.12,27.17L662.5,629l-27.44,26.5-43.63,42.17Q577.72,710.9,564,724.14l-29.14,28.17-28,27-29.15,28.17-28.29,27.34c-2,1.89-4,3.69-5.9,5.63A13.36,13.36,0,0,1,432.76,844.74Z" transform="translate(-44 -36.27)"/><path id="outline" d="M432.87,844.74a13.54,13.54,0,0,1-10.67-4.25Q406.65,825.34,391,810.28q-14.4-13.93-28.81-27.84l-28.13-27.17-29-28L277.3,700.44l-29-28-28.13-27.17-28.81-27.84-28.13-27.16-28.64-27.67-28.13-27.17L77.33,507.25q-14.41-13.92-28.82-27.83a13.28,13.28,0,0,1-4-13.76,13,13,0,0,1,3-5.38q12-13.51,24.12-27,14.94-16.72,29.87-33.47,12.14-13.59,24.28-27.19l37.25-41.67,44.12-49.36q20-22.36,39.95-44.72,22.14-24.78,44.27-49.55l44.28-49.55L380,88.2l39-43.65c1.12-1.25,2.33-2.43,3.41-3.71,5.26-6.17,15.83-6,21.09.1,3.07,3.58,6.29,7,9.43,10.55L475,76.18q13.33,15,26.67,29.89,11.34,12.71,22.72,25.38,18.93,21.21,37.85,42.42,13.26,14.85,26.56,29.67,18.86,21.11,37.69,42.23L651.71,274l30.83,34.54q10.62,11.9,21.27,23.77,13.35,14.94,26.68,29.89,11.34,12.69,22.71,25.38,19,21.28,38,42.59,12.7,14.24,25.44,28.42c.48.54,1,1.07,1.43,1.62,5.17,6.13,4.88,13.55-.83,19.17-4.5,4.43-9.08,8.78-13.62,13.18q-9.48,9.18-19,18.36l-43.82,42.35q-13.62,13.17-27.27,26.33l-29.84,28.84Q670,621.72,656.31,635l-43.13,41.67-27.62,26.66-43.81,42.35-28.13,27.17-43.31,41.84c-8.74,8.44-17.51,16.85-26.23,25.32C440.9,843.06,437.34,845.1,432.87,844.74ZM433,87.86A4,4,0,0,0,431.53,90q-7.93,15.61-15.83,31.23l-36,71q-17.94,35.42-35.9,70.82l-36,71q-18.17,35.84-36.33,71.67c-1.92,3.79-2.08,3.18,1.81,4.69q30.3,11.74,60.62,23.42,48.54,18.76,97.06,37.56a4.91,4.91,0,0,0,3.89-.05q25.59-9.94,51.21-19.83l83.66-32.31q12.19-4.71,24.37-9.45c1.78-.69,1.76-.74,1-2.37-.21-.43-.43-.85-.65-1.28q-10.5-20.62-21-41.26-18-35.5-36-71l-36-71q-18-35.52-36-71-15.54-30.7-31.06-61.43C434,89.57,433.53,88.8,433,87.86Zm-14.61,712,.46-.28v-3.1q0-148.62,0-297.24c0-.56-.05-1.12,0-1.68.18-1.66-.39-2.78-2.11-3.2a13.59,13.59,0,0,1-1.79-.71l-42.95-16.58Q311.23,453.54,250.4,430a7,7,0,0,0-4.85-.07q-37.45,11.13-74.93,22.19-41.38,12.22-82.77,24.45c-3.16.93-3.15.95-.84,3.17q19.17,18.48,38.33,37,16.4,15.84,32.76,31.7,19.49,18.84,39,37.65l27.62,26.66,43.64,42.18,28,27,43.3,41.84,27.79,26.83,45.69,44.21C414.87,796.47,416.66,798.15,418.43,799.85Zm362-322.28a4.55,4.55,0,0,0-2.16-.9L708.14,456q-44-13-88-26.07a7.57,7.57,0,0,0-5.29.28q-19,7.43-38,14.75-63.19,24.42-126.4,48.84c-3.86,1.49-3.53,1-3.53,5.1l.06,224.32q0,36.71,0,73.42a5.81,5.81,0,0,0,.27,2.79,3.25,3.25,0,0,0,1.66-1.13c5.95-5.7,11.91-11.38,17.84-17.1q13.72-13.23,27.44-26.5l43.65-42.17,27.78-26.84,43.49-42,27.08-26.18,44.18-42.67,27.26-26.34,44-42.5q13.73-13.24,27.43-26.51C779.57,478.92,780.37,478.54,780.42,477.57ZM481.13,123l-.37.23c1.78,3.47,3.59,6.93,5.36,10.41l35.69,70.39,36.33,71.68q17.85,35.2,35.69,70.4,13.44,26.53,26.86,53.08c2.25,4.45,1.2,3.62,6,5q64.71,19.14,129.44,38.22l13.54,4c.07-.65-.31-.88-.56-1.16q-15.74-17.62-31.48-35.24-11-12.34-22.07-24.67-15-16.82-30-33.65c-7.4-8.28-14.84-16.55-22.24-24.84q-14.77-16.55-29.53-33.12-13.26-14.85-26.57-29.66-18.76-21-37.51-42.07Q556.34,207.13,543,192.23q-17.34-19.39-34.65-38.83Q499.12,143.1,490,132.8,485.55,127.9,481.13,123Zm-96.46.65-.41-.31c-.86.93-1.74,1.84-2.58,2.79l-15,16.83q-10.55,11.79-21.11,23.59-14.85,16.63-29.69,33.29c-7.51,8.41-15.06,16.78-22.56,25.19q-14.79,16.55-29.53,33.12Q250.53,273,237.23,287.82q-18.85,21.1-37.68,42.24Q186.29,344.91,173,359.72q-22.94,25.66-45.83,51.35-14.94,16.73-29.9,33.43c-.36.39-.91.71-.72,1.42.91.51,1.71-.11,2.5-.34q19.89-5.85,39.77-11.76,50.91-15,101.84-30a5.49,5.49,0,0,0,3.64-3.07Q259,371.48,273.88,342.3l35.78-70.61q18.27-36,36.55-72.09l35.46-70Z" transform="translate(-44 -36.27)"/></svg>