<svg id="D20" xmlns="http://www.w3.org/2000/svg" viewBox="0 0 701.64 795.05"><defs><style>.cls-1{fill:#838383;}</style></defs><path id="Fill" class="cls-1" d="M92.7,499c0-34.31.25-68.62-.06-102.93-.49-55-.13-110-.43-165,0-6.11,2.61-10.38,7.85-13.22l51.65-28q29.52-16,59-32l54.19-29.38q32.16-17.43,64.29-34.9,27-14.64,54-29.26Q407,51.29,430.83,38.34c1.27-.68,2.54-1.37,3.82-2a16.37,16.37,0,0,1,16.07.09c9.44,5.06,18.84,10.21,28.25,15.32L521.76,75l54.82,29.74,52.7,28.58,54,29.28,47.65,25.84C749,198.19,767,208,785.08,217.77c5.52,3,8,7.52,8,13.67,0,14.88,0,29.76-.09,44.63-.62,68.77,0,137.55-.51,206.32-.31,46.54-.11,93.08-.37,139.62,0,4.4-.35,8.78-.8,13.16-.56,5.37-3.21,9.1-8,11.63-9.7,5.08-19.27,10.42-28.9,15.64Q721.67,680.19,689,697.91q-24.36,13.22-48.72,26.39Q611.09,740.14,581.9,756q-21.18,11.49-42.38,23Q509.9,795,480.29,811.14l-29.1,15.77a16.8,16.8,0,0,1-16.94.11L384.9,800.29l-37.73-20.48-64.71-35.13q-20.88-11.32-41.75-22.63l-65.35-35.47-48.5-26.28c-8.36-4.54-16.63-9.25-25.1-13.59-5.21-2.68-7.49-6.88-8-12.43-.32-3.27-.46-6.53-.51-9.81-.45-32.47-.37-64.93-.39-97.4V499Z" transform="translate(-92.21 -34.25)"/><path id="Outline" d="M793.28,397.67c0,28.05.25,61.72-.07,95.39-.41,42.94,0,85.88-.34,128.82a119.46,119.46,0,0,1-.86,13.63,13.38,13.38,0,0,1-7.47,11c-7.65,4-15.18,8.23-22.77,12.35l-60.49,32.84q-20.44,11.1-40.91,22.18l-67,36.36q-29.73,16.13-59.46,32.24Q499,801.39,464.11,820.34c-4.22,2.29-8.41,4.62-12.67,6.84a16.36,16.36,0,0,1-16.08,0Q416.46,817,397.6,806.75q-18.45-10-36.89-20l-66.19-35.92q-24.34-13.2-48.71-26.39l-58.17-31.6Q165.92,681,144.19,669.29c-13.91-7.55-27.75-15.24-41.74-22.63-5.21-2.75-7.38-7-8-12.49-.77-7.34-.44-14.7-.52-22-.73-71.49-.07-143-.55-214.48-.37-55.5-.13-111-.43-166.49,0-6.21,2.61-10.52,7.94-13.41l63.26-34.3,70.61-38.33Q264.41,129,294.05,113q32.15-17.44,64.29-34.9l54.19-29.38q11.39-6.16,22.77-12.34a16.86,16.86,0,0,1,11.85-1.67,16.22,16.22,0,0,1,4.45,1.74Q468.78,45.77,486,55.08L528.12,78,589.05,111q26.57,14.4,53.13,28.8L701,171.76q23.93,13,47.86,26c12.37,6.71,24.71,13.47,37.11,20.13,5.44,2.92,7.89,7.43,7.88,13.48,0,16.56.13,33.11-.13,49.67C793.12,318,793.73,355,793.28,397.67ZM259.84,315.88c.58,2.5,181.85,331.61,183.58,333.49,1.75-2.32,183-331.22,183.55-333.5a5.65,5.65,0,0,0-2.58-.21c-27.51-.2-55-.23-82.52-.33-67.88-.24-135.77-.46-203.66.15-25.19.23-50.38.12-75.57.18A7,7,0,0,0,259.84,315.88ZM238.4,333c-1.27,3.46-2.34,6.38-3.4,9.31q-12.5,34.48-25,69-11.76,32.48-23.5,64.94l-27,74.63q-11.61,32-23.21,64-1.68,4.62-3.33,9.25c-.7,2-.68,2,1.45,2.42,1.09.21,2.21.33,3.31.49l18,2.6,18.24,2.62L192.16,635c6.08.88,12.16,1.74,18.24,2.63l18,2.63c6.07.88,12.16,1.71,18.24,2.6,7.1,1,14.2,2.11,21.3,3.14s14.38,2,21.56,3.07,14.36,2.13,21.55,3.17,14.37,2,21.56,3.07,14.52,2.13,21.78,3.19c6,.87,12,1.71,18,2.57q9.36,1.35,18.71,2.73,9.11,1.34,18.23,2.67c3.79.55,7.57,1.14,11.37,1.6,1.88.23,2.1-.17,1.22-1.77q-9.06-16.5-18.15-33Q392.66,613.12,381.55,593q-9.72-17.64-19.42-35.3l-22-39.9q-9.84-17.87-19.64-35.73-11-19.95-22-39.9-12.5-22.69-25-45.39-14.1-25.64-28.22-51.26C243.1,341.49,240.89,337.52,238.4,333Zm409.78.2-46.28,84-46,83.6q-23,41.82-46,83.63c-15.32,27.81-30.66,55.61-46.11,83.76,1.52-.14,2.55-.18,3.57-.33,3.87-.56,7.73-1.17,11.6-1.73,7.18-1,14.37-2,21.56-3.08s14.2-2.12,21.3-3.15c8.29-1.19,16.59-2.31,24.88-3.51,9.4-1.36,18.78-2.8,28.17-4.16,7.18-1,14.38-2,21.56-3.07,7.34-1.05,14.68-2.16,22-3.22,7-1,14.06-2,21.08-3,8.21-1.2,16.41-2.46,24.62-3.65S680.68,637,689,635.8c10.42-1.51,20.83-3.1,31.25-4.6s21-3,31.51-4.46c2.67-.38,2.78-.62,1.84-3.22q-7.46-20.52-14.88-41-13.63-37.66-27.26-75.32-15.58-43.05-31.21-86.12-14.37-39.68-28.75-79.36A73.38,73.38,0,0,0,648.18,333.24ZM264.2,289c30.35,0,60.09,0,89.82,0s59.48-.5,89.22-.5,59.65.55,89.47.5,59.41,0,89.06,0c.21-1.06-.4-1.44-.79-1.91q-32.58-39.81-65.19-79.6-27.66-33.76-55.33-67.53T445.32,72.55c-.41-.49-.82-1-1.25-1.45a.85.85,0,0,0-1.43,0c-.27.29-.54.59-.79.9l-39.19,47.88q-19.76,24.13-39.5,48.26L313.3,229q-21.14,25.78-42.25,51.58C268.88,283.19,266.73,285.85,264.2,289ZM119.67,253.75v3c.24,36,0,71.95.27,107.93.36,58.53.2,117.06.26,175.59,0,10.24,0,20.47,0,30.71,0,2.66.24,5.32.36,8a2.53,2.53,0,0,0,.85-1.24q2.83-7.77,5.65-15.55l23-63.35,25.07-69.21,23.2-64q9.31-25.71,18.61-51.41c.89-2.45.88-2.47-1.3-3.77L201,301.71l-78.94-47A5.48,5.48,0,0,0,119.67,253.75ZM765.92,579.47l.41-.07c0-.77,0-1.54,0-2.31.25-38.22.1-76.45.31-114.67.39-68.53.23-137.07.28-205.6,0-.91.47-2.13-.53-2.64-.82-.4-1.59.53-2.32,1q-22.91,13.58-45.78,27.2-23.61,14-47.22,28.07c-2.18,1.3-2.17,1.32-1.36,3.56q7.66,21.19,15.34,42.39Q705.63,413.18,726.24,470l37,102.15C764.11,574.59,765,577,765.92,579.47ZM392.57,90.22l-.29-.35L133.45,230.28a5.74,5.74,0,0,0,2.27,1.75l53.4,31.73q19.49,11.58,39,23.16c2.29,1.36,2.3,1.35,4-.76L244,271.7l58.36-71.26,80.23-98Zm360.52,140L494.27,89.78a3.27,3.27,0,0,0,1.1,1.94q15.56,19,31.15,38,21.94,26.81,43.9,53.63L635,262.25q9.94,12.15,19.9,24.3c1.37,1.67,1.47,1.67,3.38.59.21-.11.41-.24.62-.36l91.93-54.68A4.34,4.34,0,0,0,753.09,230.19ZM184.82,660.68l0,.37c.2.12.39.27.6.38q19.38,10.53,38.78,21.06,27.09,14.68,54.2,29.36,40.47,22,80.94,44L427,792.52c2.87,1.55,2.91,1.54,2.91-1.7V725.08q0-13.2,0-26.39c0-2.29-.21-2.59-2.26-2.89-5.85-.85-11.7-1.66-17.54-2.5l-18.24-2.64L373.6,688l-18-2.6-21.8-3.16-18-2.6L297.32,677l-18.24-2.66-18-2.6-18.25-2.63L218,665.48l-21.56-3.14Zm517,.48-.12-.48c-3.14.47-6.28,1-9.43,1.41-7.18,1-14.37,2-21.56,3.06-9.31,1.35-18.62,2.77-27.93,4.12-8.29,1.2-16.59,2.34-24.88,3.53q-12.79,1.85-25.57,3.74c-6.16.9-12.31,1.82-18.47,2.71q-10.41,1.53-20.84,3c-7.18,1-14.37,2-21.56,3.07-8.29,1.2-16.57,2.44-24.86,3.65-7.1,1-14.21,2-21.32,3-8.52,1.23-17,2.49-25.57,3.7-2.46.35-2.7.55-2.74,3,0,.24,0,.48,0,.72v91.38c0,.32,0,.64,0,1,.07,1.93.22,2,1.87,1.21.36-.18.71-.37,1.06-.56l16.44-8.92L541.9,748l81.12-44q35.52-19.27,71-38.51C696.65,664,699.23,662.57,701.82,661.16Z" transform="translate(-92.21 -34.25)"/></svg>