<svg id="D6" xmlns="http://www.w3.org/2000/svg" viewBox="0 0 776.63 795.52"><defs><style>.cls-1{fill:#999;}</style></defs><path class="cls-1" d="M826.89,393.55V604.2c0,1.76,0,3.52,0,5.28-.14,5.57-2.54,9.81-7.47,12.53l-13.85,7.66-59.66,32.89L697.35,689.3q-27.11,14.93-54.19,29.89T589,749l-58.17,32.1L477,810.76l-29.84,16.42a16.64,16.64,0,0,1-16.93.06c-13-7.14-26.05-14.35-39.07-21.52l-50.42-27.78q-23.85-13.14-47.68-26.3L247.9,726.75l-54-29.78q-27.21-15-54.42-30l-58-32c-7.21-4-14.44-7.92-21.64-11.91a21.58,21.58,0,0,1-6.06-4.24c-2.65-3-3.29-6.67-3.53-10.47-.08-1.2,0-2.4,0-3.6,0-38.87-.11-77.73.1-116.6.57-103,.07-206,.29-309a30.23,30.23,0,0,1,.18-5C52,167.73,56.27,164.16,62,162c6.66-2.48,13.44-4.65,20.17-6.95L226.6,105.64l117-40Q386.86,50.83,430.05,36a25.33,25.33,0,0,1,17.11-.05Q502,54.78,556.93,73.54l90,30.82L736.56,135q38.79,13.28,77.57,26.55a25.54,25.54,0,0,1,5.61,2.67,14.45,14.45,0,0,1,7,12.64c0,1,0,2.08,0,3.12V393.55Z" transform="translate(-50.26 -34.48)"/><path d="M826.88,394.1V605c0,1.75,0,3.52,0,5.27-.26,5.36-2.58,9.46-7.36,12.09q-26.07,14.34-52.1,28.72L713.19,681l-48.11,26.51-64.27,35.44Q579,755,557.11,767l-68.67,37.88q-20.81,11.48-41.62,22.89a16,16,0,0,1-16.06.14c-10.06-5.42-20-11-30.06-16.52l-45.16-24.9-58.38-32.21q-25.11-13.83-50.22-27.64Q216,709.55,185,692.44l-50.22-27.65L77,632.93l-17-9.37a29,29,0,0,1-4.68-2.9c-3.63-3-4.76-7.06-5-11.52,0-1,0-2.08,0-3.12,0-39.27-.11-78.53.11-117.8.56-102.37.07-204.73.28-307.1,0-1,0-2.08,0-3.12-.35-7.32,3.57-12.67,10.94-15.42,6.66-2.48,13.43-4.67,20.16-7L208.34,112.3,297,82,424.27,38.4c1.66-.57,3.34-1.11,5-1.75a24.82,24.82,0,0,1,9.84-1.7,25.16,25.16,0,0,1,7.75,1.31q73.47,25.17,147,50.3l115,39.34,90.27,30.91q7.71,2.64,15.43,5.28a23.83,23.83,0,0,1,5.16,2.49,14.65,14.65,0,0,1,7.06,12.87c0,1,0,2.08,0,3.12V394.1Zm-374.62,400a1.84,1.84,0,0,0,1.51-.41Q477.1,780.82,500.4,768q33.83-18.63,67.63-37.28l58.19-32.06,58.37-32.21q27-14.88,54-29.74l58.17-32.09c3.94-2.18,3.51-1.29,3.5-5.81-.25-124.27.32-248.54-.34-372.8,0-8.24,0-16.47,0-24.71,0-2.72-.09-2.76-2.7-1.78l-14.59,5.46q-56,21-112.06,41.91-51.64,19.31-103.32,38.57l-79.27,29.65-33.47,12.49c-2.35.88-2.35.91-2.38,3.48v.72q0,229.82-.06,459.65A6.24,6.24,0,0,0,452.26,794.07Zm-27.07.17a11.08,11.08,0,0,0,.22-3.53c-.16-118.11.34-236.23-.25-354.35-.14-27.51-.05-55-.06-82.53q0-11.4,0-22.8c0-2.58,0-2.61-2.37-3.49l-11-4.12-96.81-36.18-108-40.38L97.73,206.07c-6.14-2.3-12.28-4.61-18.43-6.87-1.78-.66-1.93-.53-2,1.29,0,.8,0,1.6,0,2.4q-.07,174.66-.13,349.33c0,15.83.11,31.66-.32,47.49,0,2,.46,3.23,2.33,4.17,3.93,2,7.71,4.23,11.57,6.35q41.18,22.68,82.35,45.36,40.65,22.41,81.27,44.84,41.17,22.71,82.36,45.37L422.21,793A8.19,8.19,0,0,0,425.19,794.24ZM98.9,177.77a3.16,3.16,0,0,0,1.88,1.15q25.93,9.71,51.88,19.38L250.81,235l88.26,33q48.29,18,96.56,36.13a7.86,7.86,0,0,0,5.95,0q59.6-22.36,119.24-44.6l95-35.51,121-45.28c.52-.19,1.21-.19,1.59-.92-.66-.24-1.17-.44-1.69-.62l-47.86-16.41L620,123.54,549.48,99.4q-54.11-18.53-108.2-37.07a7.36,7.36,0,0,0-5.11,0c-10,3.51-20.09,6.95-30.14,10.39q-54.9,18.78-109.8,37.56-34.83,11.91-69.64,23.85-56.25,19.26-112.52,38.48Z" transform="translate(-50.26 -34.48)"/></svg>