<svg id="D10" xmlns="http://www.w3.org/2000/svg" viewBox="0 0 777.78 808.49"><path id="outline" d="M388.87,808.47a13.53,13.53,0,0,1-10.67-4.25Q362.65,789.07,347,774q-14.4-13.93-28.81-27.84L290.06,719l-29-28L233.3,664.17l-29-28L176.17,609l-28.81-27.84L119.23,554,90.59,526.33,62.46,499.16,33.33,471,4.51,443.15a13.27,13.27,0,0,1-4-13.76,12.92,12.92,0,0,1,3-5.38q12-13.51,24.12-27,14.94-16.72,29.87-33.47Q69.64,350,81.78,336.35L119,294.68l44.12-49.36q20-22.37,39.95-44.72l44.27-49.55,44.28-49.55L336,51.93,375,8.28c1.12-1.25,2.33-2.43,3.41-3.71,5.26-6.17,15.83-6,21.09.1,3.07,3.58,6.29,7,9.43,10.55L431,39.91q13.33,15,26.67,29.89Q469,82.51,480.39,95.18l37.85,42.42q13.26,14.85,26.56,29.67,18.86,21.1,37.69,42.23l25.22,28.23,30.83,34.54q10.62,11.89,21.27,23.77,13.35,14.94,26.68,29.89,11.34,12.69,22.71,25.38,19,21.29,38,42.59,12.7,14.24,25.44,28.42c.48.54,1,1.07,1.43,1.62,5.17,6.13,4.88,13.55-.83,19.17-4.5,4.43-9.08,8.78-13.62,13.18q-9.48,9.18-19,18.36L696.8,517q-13.62,13.17-27.27,26.33l-29.84,28.84-27.38,26.56L569.18,640.4l-27.62,26.66-43.81,42.35-28.13,27.17-43.31,41.84c-8.74,8.44-17.51,16.85-26.23,25.32C396.9,806.79,393.34,808.83,388.87,808.47ZM389,51.59a4,4,0,0,0-1.47,2.14Q379.6,69.35,371.7,85l-36,71q-17.94,35.41-35.9,70.82l-36,71-36.33,71.67c-1.92,3.79-2.08,3.18,1.81,4.69q30.3,11.75,60.62,23.42,48.54,18.76,97.06,37.56a4.91,4.91,0,0,0,3.89-.05q25.59-9.94,51.21-19.83l83.66-32.31q12.19-4.71,24.37-9.45c1.78-.69,1.76-.74,1-2.37-.21-.43-.43-.85-.65-1.28l-21-41.26-36-71-36-71q-18-35.52-36-71-15.54-30.7-31.06-61.43C390,53.3,389.53,52.53,389,51.59Zm-14.61,712,.46-.28V463c0-.56-.05-1.12,0-1.68.18-1.66-.39-2.78-2.11-3.2a13.07,13.07,0,0,1-1.79-.71L328,440.8,206.4,393.73a7,7,0,0,0-4.85-.07q-37.45,11.13-74.93,22.19L43.85,440.3c-3.16.93-3.15.95-.84,3.17q19.17,18.48,38.33,37,16.39,15.84,32.76,31.7,19.49,18.84,39,37.65l27.62,26.66,43.64,42.18,28,27,43.3,41.84,27.79,26.83,45.69,44.21c1.73,1.66,3.52,3.34,5.29,5Zm362-322.28a4.6,4.6,0,0,0-2.16-.9l-70.09-20.68q-44-13-88-26.07a7.54,7.54,0,0,0-5.29.28q-19,7.43-38,14.75l-126.4,48.84c-3.86,1.49-3.53,1-3.53,5.1L403,687v73.42a5.75,5.75,0,0,0,.27,2.79,3.25,3.25,0,0,0,1.66-1.13c5.95-5.7,11.91-11.38,17.84-17.1q13.72-13.23,27.44-26.5l43.65-42.17,27.78-26.84,43.49-42,27.08-26.18,44.18-42.67,27.26-26.34,44-42.5q13.73-13.25,27.43-26.51c.51-.57,1.31-1,1.36-1.92ZM437.13,86.73l-.37.23c1.78,3.47,3.59,6.93,5.36,10.41l35.69,70.39,36.33,71.68q17.85,35.21,35.69,70.4,13.44,26.54,26.86,53.08c2.25,4.45,1.2,3.62,6,5q64.71,19.14,129.44,38.22l13.54,4c.07-.65-.31-.88-.56-1.16l-31.48-35.24q-11-12.35-22.07-24.67l-30-33.65c-7.4-8.28-14.84-16.55-22.24-24.84Q604.55,274,589.79,257.46q-13.26-14.85-26.57-29.66-18.76-21-37.51-42.07Q512.34,170.87,499,156q-17.34-19.4-34.65-38.83-9.23-10.3-18.35-20.6Q441.54,91.63,437.13,86.73Zm-96.46.65-.41-.31c-.86.93-1.74,1.84-2.58,2.79l-15,16.83-21.11,23.59q-14.85,16.64-29.69,33.29c-7.51,8.41-15.06,16.78-22.56,25.19q-14.79,16.55-29.53,33.12-13.26,14.85-26.56,29.67-18.85,21.1-37.68,42.24Q142.29,308.64,129,323.45q-22.93,25.67-45.83,51.35-14.94,16.72-29.9,33.43c-.36.39-.91.71-.72,1.42.91.51,1.71-.11,2.5-.34q19.89-5.85,39.77-11.76l101.84-30a5.49,5.49,0,0,0,3.64-3.07Q215,335.22,229.88,306l35.78-70.61q18.27-36,36.55-72.09l35.46-70Z" transform="translate(0.03 -0.02)"/></svg>