<svg id="D10" xmlns="http://www.w3.org/2000/svg" viewBox="0 0 697.92 714.24"><path d="M427.86,75.36a35.14,35.14,0,0,0,2.49,5.44q17.22,34.05,34.42,68.1,18,35.65,36.1,71.28l35.78,70.63Q554.32,325.7,572,360.58q8.73,17.24,17.53,34.42a11.84,11.84,0,0,1,.5,1.09c.58,1.6.39,2.17-1.11,2.89-1,.48-2.06.86-3.11,1.26l-101.33,39.2c-18.27,7.06-36.56,14.08-54.8,21.21a8.22,8.22,0,0,1-6.44-.14q-32.42-12.61-64.86-25.12l-90.83-35.12c-1-.4-2.1-.78-3.11-1.27-1.45-.7-1.69-1.37-1.16-2.9a11.09,11.09,0,0,1,.61-1.31q9.47-18.74,18.94-37.47,19.28-38.11,38.57-76.21,8.67-17.13,17.36-34.24,18.42-36.39,36.85-72.78l33.75-66.55L423.5,79.73a27.14,27.14,0,0,0,2-4.37ZM77.57,466.56l21.91,21.17,43.64,42.18q13.27,12.84,26.57,25.66,22.42,21.67,44.83,43.37,13.28,12.82,26.57,25.66,15.27,14.74,30.52,29.52l27.26,26.34L328,708.63l28.12,27.18,29,28,24.65,23.85c.63.61,1.2,1.29,1.8,1.93h1.91a27.11,27.11,0,0,0,.45-5.25q0-75.95.06-151.9,0-71.51,0-143c0-.88,0-1.76,0-2.64-.06-3.32-.48-3.88-3.63-5.1q-48-18.54-96-37.1-33.76-13.07-67.52-26.18A14.69,14.69,0,0,0,237,418q-23.89,7.14-47.8,14.24-52.53,15.54-105.08,31.06a30.13,30.13,0,0,0-6.56,2.26Zm364.21,323c.64-.7,1.26-1.45,2-2.11,2.59-2.49,5.22-5,7.81-7.45q13.72-13.23,27.43-26.5l43.82-42.36,27.77-26.84,44-42.53,26.92-26,43.47-42,28.12-27.18,43.29-41.85c3.73-3.62,7.43-7.27,11.17-10.89q13.35-12.93,26.71-25.87c1.91-1.85,1.7-2.61-.79-3.42-.22-.07-.46-.11-.69-.18l-73.81-21.85Q657,430.15,615,417.7a11,11,0,0,0-7.45.31Q571,432.22,534.41,446.34q-45.06,17.45-90.14,34.89c-4.44,1.72-5,1-5,7.2.27,36.8.14,73.59.34,110.39.32,62.55.09,125.11.1,187.67,0,1,.09,2.07.14,3.11ZM91,435.82l25.75-7.61,66.45-19.66c16.78-5,33.56-9.93,50.38-14.8a9.4,9.4,0,0,0,6.3-5.34c3.39-7,7-13.85,10.5-20.77l35.56-70.18,35.46-70q19.94-39.37,39.85-78.77,7.86-15.53,15.74-31,1.79-3.54,3.53-7.09c.28-.57.55-1.26-.19-1.69s-1.06.11-1.49.47a4.83,4.83,0,0,0-.5.51q-11.81,13.26-23.61,26.51-13.41,15-26.86,30-10.79,12.08-21.57,24.15Q293.18,205.27,280.1,220q-10.86,12.18-21.74,24.32-13,14.6-26,29.19-12.85,14.4-25.74,28.79l-27.15,30.42-21.42,24-26.68,29.88q-8.94,10-17.92,20-11.52,12.87-23,25.75c-.64.71-1.23,1.48-1.81,2.24a1.08,1.08,0,0,0-.27,1.1c.24.51.75.54,1.35.52C90,436.06,90.51,436,91,435.82Zm673.81-.07a1.09,1.09,0,0,0-.14-1.33,12.07,12.07,0,0,0-1-1.32q-6.78-7.61-13.59-15.19-10.89-12.17-21.76-24.31-14.94-16.74-29.85-33.49-11.17-12.53-22.4-25-14.85-16.63-29.68-33.31-15.11-16.9-30.23-33.79-17-19.05-34-38.13Q567,212.94,551.87,196.07,533,175,514.2,153.81q-17.81-20-35.63-39.91-2-2.24-4.05-4.42c-.39-.41-.93-.75-1.48-.32a1.16,1.16,0,0,0-.18,1.35,14.36,14.36,0,0,0,.78,1.75c.77,1.49,1.59,2.95,2.35,4.45q16.67,32.83,33.3,65.69,18.06,35.63,36.1,71.27,17.94,35.41,35.89,70.83,16.08,31.8,32.06,63.63a10.29,10.29,0,0,0,6.85,5.75c17,4.91,33.89,10,50.83,15l91.06,26.89,1.23.35C764,436.2,764.46,436.18,764.78,435.75Z" transform="translate(-77.57 -75.36)"/></svg>