<svg id="D12" xmlns="http://www.w3.org/2000/svg" viewBox="0 0 756.24 740.34"><path d="M432.89,797.76H307.63c-1.92,0-3.85-.06-5.76.07a14.7,14.7,0,0,1-9.86-3c-7.11-5-14.33-9.93-21.5-14.89l-42.82-29.63Q201.85,732.41,176,714.55a25.72,25.72,0,0,1-7.81-8.63Q154,681.14,139.73,656.4L100.5,588.17q-21.57-37.54-43.14-75.1A19.85,19.85,0,0,1,54.66,503c0-13.28-.1-26.56.11-39.83.55-33.76.22-67.51.35-101.26a22.22,22.22,0,0,1,3.68-12.39c6.93-10.84,13.54-21.9,20.28-32.87q29-47.24,58-94.46Q164.47,177.6,191.82,133a19.94,19.94,0,0,1,7.91-7.44q30.45-16.08,60.81-32.3,31.57-16.77,63.12-33.59c3.32-1.77,6.92-1.75,10.48-2.11a25.8,25.8,0,0,1,2.64,0q96,0,192,0c2.73,0,5.42.32,8.13.52A14.51,14.51,0,0,1,542.53,60Q561.37,70,580.23,80l76.06,40.43c3,1.57,5.88,3.25,8.91,4.69a20.8,20.8,0,0,1,9,8.36c6.71,11.08,13.51,22.1,20.29,33.14l55.77,90.78q19.83,32.31,39.66,64.62,9.06,14.71,18.19,29.37a14,14,0,0,1,2.28,7.71c0,.16,0,.32,0,.48q.45,71.75.51,143.49A20.6,20.6,0,0,1,808,513.61q-34.38,59.8-68.77,119.6-21,36.62-42.09,73.22a25.34,25.34,0,0,1-7.79,8.33q-56,38.65-111.92,77.36c-1.58,1.09-3.17,2.16-4.73,3.28a13.28,13.28,0,0,1-8.1,2.45q-65.86-.08-131.75,0ZM655.14,154.93c-.71.13-1.42.24-2.13.39L546.93,178.69l-96.49,21.22c-3.54.78-3.53.79-3.55,4.34-.16,30.39,0,60.78-.23,91.18-.29,41.35-.08,82.71-.15,124.07a4.22,4.22,0,0,0,2.44,4.15c9.6,5.6,19.14,11.31,28.69,17l119.59,71.17q9.18,5.46,18.36,10.91c1.84,1.09,2.07,1,3.31-.26l15.54-16.34L671,467.73q9.42-9.9,18.87-19.79,15.66-16.41,31.31-32.81,9.1-9.54,18.21-19.1,18.24-19.08,36.49-38.14c3.4-3.54,3.05-2.87.67-6.76q-22.63-36.92-45.32-73.81L661.7,164q-2.44-4-4.93-8C656.4,155.47,656.05,154.78,655.14,154.93ZM419,311.77h-.07V205.21c0-.72,0-1.44,0-2.16-.05-2.16-.14-2.27-2.14-2.79L415.6,200l-81-17.84-89.48-19.66-32.55-7.16c-2.8-.61-2.81-.6-4.35,1.91q-8.53,13.91-17.08,27.81l-56,91.19q-16.39,26.68-32.78,53.36L88,352.9c-1.15,1.88-1.13,1.89.35,3.46s3,3.28,4.59,4.9l31,32.45q9.44,9.9,18.87,19.8Q163.1,434.78,183.4,456,198,471.31,212.54,486.6L246.36,522c1.81,1.89,1.84,1.89,4,.58q9-5.33,17.95-10.67,26.49-15.76,53-31.55,47.73-28.41,95.49-56.78c1.57-.93,2.44-2,2.18-3.81a9.59,9.59,0,0,1,0-1.2Zm13.93,459.14H550.25c3.69,0,3.69,0,4.51-3.63q9.62-42.81,19.22-85.63,10.65-47.49,21.29-95c2.74-12.24,5.56-24.47,8.26-36.73.76-3.45,1.14-2.73-2-4.64q-11.33-6.76-22.69-13.47l-116.9-69.57c-9-5.35-18-10.69-27-16.11a3.29,3.29,0,0,0-4.14,0c-1.09.8-2.33,1.39-3.5,2.09L338,501.39,264.18,545.3c-2.64,1.57-2.68,1.59-2,4.53q5.07,22.71,10.16,45.4,11.52,51.36,23,102.71,7.77,34.63,15.53,69.26c.85,3.78.43,3.71,4.69,3.71ZM81.74,388.26c0,1.21,0,2.07,0,2.92,0,27,0,54.07-.21,81.11-.07,8.95-.23,17.91-.28,26.86a7.79,7.79,0,0,0,1.07,4.1q18.81,32.63,37.57,65.29l37.31,64.9q16.38,28.48,32.74,57a11.48,11.48,0,0,0,3.68,4c3.53,2.34,7,4.79,10.48,7.2q37.1,25.67,74.2,51.31c.62.43,1.16,1.13,2.12,1,.32-.83-.13-1.58-.3-2.32q-7.39-33.1-14.84-66.21-11.53-51.36-23-102.72c-2.39-10.68-4.81-21.36-7.16-32.06a9.16,9.16,0,0,0-2.53-4.75c-3.23-3.22-6.31-6.58-9.46-9.87q-13-13.62-26.05-27.22Q180,490.93,163,473c-8.77-9.21-17.59-18.37-26.36-27.57Q120,428.08,103.51,410.69q-9.44-9.9-18.88-19.79A14,14,0,0,0,81.74,388.26Zm701.67.64a5,5,0,0,0-1.82,1.52c-2.82,2.95-5.62,5.91-8.44,8.86l-40.08,42-30,31.42Q688.19,488.34,673.29,504q-19.71,20.66-39.45,41.28a13.08,13.08,0,0,0-3.51,6.61q-11,49.5-22.17,99-11.4,50.76-22.79,101.54a2.09,2.09,0,0,0,.06,1.88c.88-.58,1.68-1.1,2.46-1.64l30.39-21Q645.5,712.76,672.76,694a7.63,7.63,0,0,0,2.44-2.58c2.28-4,4.62-8,6.93-12.06l55.71-96.93Q760.08,543.7,782.36,505a13.58,13.58,0,0,0,1.95-7.24c-.27-30.47.13-60.94-.46-91.41-.1-5,0-10.08-.06-15.12A3.35,3.35,0,0,0,783.41,388.9Zm-543-254.8c.9.27,1.35.44,1.82.54q26.34,5.81,52.69,11.58l89,19.56Q407.46,171,431,176.13a8.28,8.28,0,0,0,3.77,0c4.52-1.05,9.05-2,13.58-3L564,147.67l58.55-12.87a5.69,5.69,0,0,0,2.33-.82c-.77-.46-1.29-.81-1.85-1.11l-54.87-29.14c-11.51-6.12-23-12.2-34.52-18.36a9.68,9.68,0,0,0-4.78-1.24q-96,0-191.95,0a9.83,9.83,0,0,0-4.81,1.16q-13.41,7.23-26.88,14.35Q280,113,254.81,126.4Z" transform="translate(-54.65 -57.53)"/></svg>