<svg id="D12" xmlns="http://www.w3.org/2000/svg" viewBox="0 0 704.42 687.96"><path d="M445.94,306V199c0-4.37,0-4.4,4.2-5.32q33.35-7.32,66.7-14.6,30.76-6.75,61.53-13.54L653.69,149c2.55-.56,2.58-.55,4,1.74q16.4,26.67,32.77,53.35l48.48,78.89q19.59,31.89,39.16,63.78c.09.13.16.27.24.41,1.28,2.14,1.28,2.14-.39,3.86-1.33,1.38-2.67,2.76-4,4.15Q762.57,367,751.21,378.86q-15.08,15.78-30.14,31.58L701.36,431.1q-15.08,15.79-30.14,31.58-14.75,15.45-29.48,30.9-11.16,11.73-22.28,23.5c-1.74,1.83-1.86,1.87-4.26.44q-22.89-13.59-45.78-27.22L455,422.23c-2.48-1.47-4.94-3-7.44-4.38a2.92,2.92,0,0,1-1.68-2.92c.05-.72,0-1.44,0-2.16q0-53.38,0-106.76Zm-26.31-.13V199.37c0-.8,0-1.6,0-2.4-.05-2.2-.24-2.45-2.33-2.92-2.49-.55-5-1-7.5-1.59L320.9,172.91q-30.88-6.79-61.76-13.54-23.4-5.15-46.77-10.36c-3-.65-3-.64-4.44,1.76Q187.26,184.39,166.62,218l-55.35,90.14q-12,19.52-24,39c-1.23,2-1.19,2,.37,3.67l18.54,19.44,28,29.32c5.25,5.49,10.53,11,15.77,16.46q11.58,12.15,23.13,24.33c5.52,5.79,11.09,11.52,16.61,17.31q16.13,16.93,32.22,33.9,9.67,10.17,19.37,20.31c1.71,1.79,3.43,3.58,5.17,5.35,1.59,1.61,1.61,1.6,3.65.42l.83-.48q28.57-17,57.14-33.93l87.2-51.89c7.43-4.42,14.83-8.86,22.28-13.23,1.48-.86,2.31-1.86,2.1-3.62a17.37,17.37,0,0,1,0-1.91V305.88Zm131.17,460c3.82,0,3.6.4,4.5-3.64q11.4-50.75,22.77-101.51l20.28-90.52q2.94-13.1,5.92-26.19c.68-3,.68-3-2.08-4.69L591.69,533l-90.51-53.83q-33-19.62-65.95-39.28a4.07,4.07,0,0,0-4.79,0q-29.13,17.43-58.34,34.72L280,529.45q-8.65,5.16-17.3,10.33c-1.76,1.06-1.83,1.3-1.43,3.31.06.32.15.63.22.94q9.13,40.69,18.27,81.39,9.21,41,18.4,82.1c4.06,18.09,8.17,36.16,12.21,54.26,1.06,4.74.74,4,5.08,4q58.68,0,117.34,0ZM782.32,383.05c-1.89,1.95-3.73,3.95-5.61,5.92Q761.91,404.51,747.08,420l-30,31.41L687.47,482.5l-30,31.41q-12.59,13.17-25.22,26.32a8.22,8.22,0,0,0-2.21,4.14c-1.39,6.4-2.85,12.78-4.29,19.18l-23,102.67L585.9,741.3c-.53,2.34-1,4.69-1.54,7-.09.39-.19.8.26,1a.84.84,0,0,0,.89-.19c1.27-.84,2.53-1.68,3.78-2.55L652,703.25l21.3-14.75a7.3,7.3,0,0,0,2.3-2.39q7.2-12.6,14.46-25.15,14.48-25.17,28.92-50.32,16-27.76,31.93-55.51,16.15-28.07,32.31-56.12a12,12,0,0,0,1.72-6.33c-.12-36.22,0-72.44-.51-108.66a4,4,0,0,0-.32-2.21C783.14,381.84,782.79,382.55,782.32,383.05ZM80.57,493.34a8.57,8.57,0,0,0,1.22,4.55c5.57,9.62,11.08,19.27,16.62,28.9L149.72,616q20,34.83,40.06,69.66a8.56,8.56,0,0,0,2.69,3c3.05,2.06,6.06,4.17,9.09,6.26L244,724.22q17.37,12,34.75,24c.69.48,1.45,1.5,2.25,1s.18-1.6,0-2.4q-8.18-36.61-16.39-73.23-11.5-51.35-23-102.68l-6-26.9a5.69,5.69,0,0,0-1.38-3c-1.63-1.65-3.17-3.38-4.77-5.06q-8.38-8.75-16.78-17.48c-7.72-8.1-15.41-16.24-23.14-24.34-5.57-5.84-11.19-11.64-16.76-17.49q-11.43-12-22.81-24c-5.63-5.9-11.31-11.75-16.94-17.65q-16.12-16.94-32.23-33.9C94.92,395.07,89.08,389,83.25,383c-.47-.48-.82-1.48-1.61-1.18s-.47,1.39-.58,2.14a1.92,1.92,0,0,0,0,.24c-.22,31.83.23,63.66-.47,95.48C80.59,484.23,80.62,488.79,80.57,493.34ZM241.75,129.53l83.07,18.25,62.7,13.81,43.06,9.51a10,10,0,0,0,4.28.05l72.3-16,51-11.24,65.75-14.43a3.52,3.52,0,0,0,2.12-.93,4.45,4.45,0,0,0-2-1.46q-11.12-5.92-22.24-11.82-33.78-18-67.55-35.95a12.62,12.62,0,0,0-6.18-1.46q-95.28,0-190.56,0c-.48,0-1,0-1.44,0a6.64,6.64,0,0,0-3.65.93q-19.89,10.64-39.81,21.2-25.2,13.4-50.43,26.77a5.89,5.89,0,0,0-2.48,1.82A4.35,4.35,0,0,0,241.75,129.53Z" transform="translate(-80.57 -77.9)"/></svg>