<svg id="Layer_1" data-name="Layer 1" xmlns="http://www.w3.org/2000/svg" viewBox="0 0 701.09 795.25"><path d="M782.86,357c0,42.56.26,85.12-.08,127.68-.34,43.35,0,86.71-.33,130.06a114.8,114.8,0,0,1-.89,13.87,13.36,13.36,0,0,1-7.4,10.76c-12.22,6.49-24.32,13.2-36.48,19.8q-30.46,16.56-60.94,33.08l-47.47,25.72q-29.84,16.19-59.66,32.4-24.47,13.27-49,26.51-32.16,17.45-64.31,34.92c-5.2,2.83-10.4,5.65-15.64,8.41a16.05,16.05,0,0,1-15.85,0c-11.84-6.35-23.63-12.79-35.45-19.2q-16.34-8.87-32.68-17.73-26.58-14.41-53.14-28.85L262.25,732l-66-35.83q-21.09-11.45-42.19-22.86-27.3-14.82-54.61-29.66c-2.38-1.3-4.72-2.73-7.18-3.85-5.5-2.51-7.81-7-8.4-12.72-.44-4.23-.46-8.46-.5-12.7-.71-74.79-.1-149.58-.57-224.37-.35-55.36-.12-110.71-.43-166.06,0-6.32,2.68-10.64,8.09-13.58q35.36-19.11,70.68-38.28l79.93-43.36Q274.6,110.5,308.13,92.3l73.39-39.82c14.06-7.63,28.13-15.23,42.15-22.93,6.05-3.33,11.93-3.45,18-.13q24.74,13.53,49.55,26.91L526,75.2l57.79,31.34,71.48,38.8q24.47,13.28,49,26.51,32.16,17.44,64.31,34.93c2.38,1.29,4.76,2.61,7.17,3.87,5.21,2.73,7.65,7.15,7.65,12.89,0,17.2.19,34.4-.13,51.6-.34,17.76-.11,35.51-.22,53.27-.06,9.52,0,19,0,28.55ZM327.6,308.13v.2H252.24q-1.08,0-2.16,0c-.84,0-1.19.39-.8,1.22.14.29.31.56.46.84q14.17,25.75,28.34,51.51,20,36.35,40.07,72.7,16.44,29.83,32.84,59.7,18.81,34.16,37.64,68.29,19.1,34.68,38.16,69.38c1.58,2.87,3.16,5.74,4.77,8.6.33.59.49,1.52,1.34,1.51s.84-.87,1.17-1.39c.22-.33.39-.7.58-1.05q7.1-12.93,14.21-25.87l30.56-55.48L503.6,514.4q14.05-25.54,28.13-51.07L556,419.19l30.22-54.85,24.88-45.18c1.66-3,3.33-6,5-9.05.72-1.35.52-1.65-1-1.76-.63,0-1.28,0-1.92,0-52.23-.2-104.46.15-156.69-.43-18.64-.21-37.27-.08-55.91.16C376.24,308.37,351.91,308.13,327.6,308.13Zm-99.44,18.21A2.32,2.32,0,0,0,227,328q-5.24,14.44-10.46,28.87-11.38,31.47-22.78,62.93l-29.1,80.29q-10.62,29.31-21.25,58.63Q133,587.44,122.6,616.2c-.22.6-.41,1.21-.59,1.83a.76.76,0,0,0,.6,1.08,13.73,13.73,0,0,0,1.41.33l24.2,3.48L176.44,627l28,4.06q12.58,1.81,25.15,3.63l31.31,4.54,28.23,4.08,28,4.07,28.23,4.09,28.23,4.09c9.48,1.37,19,2.76,28.46,4.11,3.36.48,6.7,1.16,10.42,1.35ZM638,326.21C636.13,328.65,454,659.07,453.75,661c.81-.07,1.61-.1,2.39-.21l24.43-3.54,31.55-4.57,28-4,28.46-4.13,28-4.08,28-4,24.91-3.58,28.22-4.11,28.22-4.09,28.23-4.08,8.3-1.24c1.07-.17,1.6-.68,1.08-1.82-.16-.37-.28-.75-.42-1.13l-18.37-50.74q-19.49-53.79-39-107.58l-44-121.56ZM611.36,281.4c-.05-1-.82-1.56-1.35-2.21q-27.59-33.69-55.19-67.37-25.7-31.37-51.37-62.74-24.69-30.18-49.4-60.33L434.44,64.81c-1.57-1.91-1.64-1.91-3.13-.09l-60.22,73.49q-24.93,30.43-49.85,60.88-33.06,40.38-66.09,80.77c-.38.47-1,.8-.92,1.72,77,.69,154-.87,231-.1,41.83.42,83.66.16,125.49.2A2,2,0,0,0,611.36,281.4ZM110,571.68h.49c.41-1.12.83-2.24,1.23-3.37Q117.34,552.65,123,537q13.53-37.32,27.06-74.64,11.44-31.57,22.86-63.15,16.59-45.78,33.18-91.56c1.39-3.83,1.33-3-1.86-4.92q-38.87-23.15-77.76-46.21c-5.22-3.11-10.44-6.23-15.68-9.3-1.41-.83-1.64-.67-1.73.87,0,.72,0,1.44,0,2.16.14,39.75.11,79.5.3,119.25.32,64.54.19,129.09.26,193.64C109.63,566,109.84,568.82,110,571.68Zm645.5.54.45-.12c0-.79,0-1.59,0-2.39.24-38.3.1-76.61.32-114.91.38-68.46.22-136.93.28-205.39,0-.84.42-2-.42-2.46s-1.6.45-2.32.88q-35,20.76-69.91,41.55-11.55,6.86-23.09,13.74c-2.33,1.38-2.32,1.43-1.39,4s1.82,4.95,2.72,7.43Q675.56,351.76,689,389q16.5,45.56,33,91.09,14.7,40.59,29.37,81.2C752.76,564.91,754.11,568.56,755.45,572.22ZM381.84,83.11c-1-.27-1.46.24-2,.53q-7.59,4.1-15.19,8.22l-73.39,39.81-73.39,39.81L160.3,202.71q-17.4,9.43-34.8,18.88c-2.92,1.59-2.9,1.63-.11,3.29l32,19,60.22,35.82c2.22,1.32,2.23,1.31,3.9-.73q16-19.49,31.94-39l69.63-85,54.12-66.08C378.71,87,380.23,85.11,381.84,83.11Zm102.43-.34-.37.34c.52.69,1,1.39,1.57,2.06q23.47,28.67,47,57.33,24.24,29.59,48.46,59.22l62.61,76.47c2.33,2.84,2.33,2.87,5.41,1q45.87-27.28,91.74-54.58c.66-.39,1.49-.61,2-1.71Zm-65.3,704a4.8,4.8,0,0,0,.39-2.84q0-45.72,0-91.44c0-.56,0-1.12,0-1.68a1.56,1.56,0,0,0-1.62-1.89c-1.43-.13-2.85-.39-4.27-.6q-17.31-2.53-34.63-5.06c-11.63-1.69-23.26-3.32-34.88-5s-23.09-3.39-34.63-5.06c-12.74-1.85-25.48-3.64-38.21-5.49-14.78-2.14-29.56-4.34-44.35-6.5q-23.13-3.36-46.27-6.67c-1.78-.25-3.56-.82-5.57-.14ZM691.49,653.9l-.12-.28c-7.66,1.09-15.33,2.16-23,3.27q-24.2,3.51-48.38,7.05-22.07,3.19-44.13,6.36c-13.84,2-27.67,4.06-41.51,6.06s-27.68,4-41.52,6c-14.24,2-28.48,4.07-42.7,6.21-4,.59-3.69,0-3.69,4.23V783c0,.56,0,1.12,0,1.68.08,1.81.35,2,2,1.11,3.31-1.76,6.6-3.58,9.91-5.37q32.67-17.74,65.36-35.49,24.46-13.26,48.94-26.51l59-32.06q27.09-14.7,54.21-29.37C687.77,656,689.62,654.92,691.49,653.9Z" transform="translate(-82.37 -26.99)"/></svg>