<svg id="Layer_1" data-name="Layer 1" xmlns="http://www.w3.org/2000/svg" viewBox="0 0 699.88 724.88"><path d="M314.44,307.5c23.19,0,46.38.27,69.57-.07q36.57-.54,73.15-.16c49.26.48,98.52.19,147.77.38a27.62,27.62,0,0,1,2.88.08c1.31.16,1.58.56,1,1.75-1.31,2.57-2.71,5.08-4.1,7.6q-14.05,25.55-28.11,51.07-14.76,26.79-29.52,53.57-12.51,22.69-25,45.4l-27.43,49.8q-10.93,19.86-21.85,39.72-16.43,29.85-32.87,59.68-6.89,12.49-13.76,25c-.16.28-.29.57-.46.84-1,1.66-1.4,1.67-2.36-.09q-7.89-14.28-15.75-28.57l-30-54.42q-11-20-22-39.94-15.21-27.63-30.44-55.26-13.75-25-27.51-50-13.59-24.69-27.21-49.36l-27.4-49.82c-.92-1.68-1.88-3.35-2.74-5.06-.71-1.43-.46-1.8,1.16-1.93.71-.06,1.44,0,2.16,0h70.77ZM448.72,661.32l28.22-4.09q14-2,28-4,15.65-2.26,31.29-4.57c9.41-1.36,18.82-2.69,28.23-4.06,10.43-1.51,20.86-3.06,31.3-4.57s21-3,31.54-4.53,20.86-3.07,31.3-4.58c11.62-1.69,23.24-3.33,34.86-5q16.14-2.32,32.25-4.68c2.93-.43,5.85-.85,8.77-1.35,1.86-.31,2-.57,1.39-2.39-.07-.23-.17-.45-.25-.67q-5.4-14.88-10.79-29.77L696,507.4Q678.46,459,660.94,410.65,645.87,369,630.78,327.43c-.28-.78-.26-2-1.28-2.08s-1.18,1.17-1.59,1.91c-4.87,8.83-9.7,17.67-14.56,26.49q-14.76,26.81-29.53,53.58-14.05,25.53-28.08,51.09-18.51,33.63-37.06,67.24-15.21,27.63-30.4,55.29-21.45,39-42.94,78a14,14,0,0,0-.77,1.49c-.44,1.09-.19,1.39,1.13,1.32Zm-44.2.13c.46-.62-.11-1.21-.37-1.77s-.59-1.13-.9-1.69q-5.91-10.71-11.82-21.42l-24.74-45-30.31-55.05-27.29-49.6-27.43-49.79-27.29-49.6q-13.76-25-27.54-50c-2.05-3.71-4.08-7.43-6.12-11.14-.26-.48-.46-1.12-1.11-1.12s-.81.71-1,1.2c-.65,1.72-1.23,3.46-1.86,5.19l-27.12,74.87-20.81,57.51q-13.56,37.43-27.14,74.86l-19.35,53.44c-2.94,8.12-5.9,16.24-8.82,24.36-1,2.65-.86,2.83,1.84,3.27,4.73.76,9.47,1.45,14.21,2.13q22.41,3.23,44.83,6.43c13.83,2,27.65,4.06,41.48,6.06,12.73,1.85,25.46,3.63,38.18,5.47,11.86,1.71,23.71,3.47,35.56,5.19,10.28,1.5,20.56,3,30.83,4.44l38.41,5.61q12.67,1.86,25.36,3.69l18.42,2.65C403.33,661.61,404.06,662.07,404.52,661.45ZM535,282.39h66c.8,0,1.6,0,2.39-.07s1-.53.58-1.16a21.47,21.47,0,0,0-1.58-2.11c-2.53-3.1-5.08-6.18-7.61-9.27L541,204.08l-70.06-85.56-44.2-54a16.66,16.66,0,0,0-1.11-1.26c-1-1-1.26-1-2.3.11-.27.29-.51.62-.76.93Q417.1,71,411.63,77.64q-22.72,27.74-45.45,55.48-18.56,22.63-37.06,45.3l-47.43,57.9-35.56,43.43a12.92,12.92,0,0,0-1.14,1.53c-.3.53-.09,1,.52,1,.88.08,1.76.08,2.64.08,45.73-.18,91.47.08,137.2-.38q42.09-.4,84.19.14c21.83.3,43.66.06,65.49.06ZM748.3,571.24c.31-70.23-.08-140.46.44-210.69.27-37.27.14-74.55.17-111.83,0-1,.5-2.33-.46-2.9s-1.9.54-2.75,1.05q-23.72,14.07-47.42,28.2l-46.8,27.83c-2.17,1.29-2.18,1.36-1.38,3.58q3.14,8.7,6.29,17.37,14.49,40,29,80.06l22.87,63.15,25.08,69.24q6.4,17.7,12.84,35.4a6.24,6.24,0,0,0,1.53,3C748.64,573.61,748.29,572.37,748.3,571.24Zm-645.72,1.37q9.44-26,18.86-52.09l25.32-69.91q11.36-31.33,22.7-62.69,14.46-39.92,28.93-79.83c1.61-4.46,1.73-3.71-2.23-6.07Q153,276.31,109.78,250.65c-2.61-1.56-5.22-3.12-7.86-4.62-1.26-.72-1.69-.45-1.84,1a13.51,13.51,0,0,0,0,1.91c.09,4.4.26,8.8.27,13.19.22,71.42-.15,142.85.45,214.27.26,31.75.08,63.51.12,95.26a7.31,7.31,0,0,0,.37,3.39A4.5,4.5,0,0,0,102.58,572.61ZM474.9,83.42q13.52,16.53,27.05,33,19.91,24.33,39.81,48.65l51.38,62.73q21.29,26,42.55,52c1.66,2,1.68,2,3.87.72q11.78-7,23.52-14,35.16-20.89,70.3-41.83c.66-.39,1.7-.6,1.73-1.49,0-1.07-1.13-1.22-1.86-1.61-6.81-3.72-13.64-7.39-20.46-11.09L663.67,183.9q-20.55-11.16-41.12-22.3-24.45-13.28-48.9-26.55L526,109.2,475.6,81.86c-.53-.28-1-.8-1.77-.45C473.66,82.37,474.43,82.85,474.9,83.42Zm-103.32-.54Q350.28,94.42,329,106l-42.17,22.86L238.57,155l-42.16,22.87-47.84,26q-16.12,8.75-32.25,17.49c-3.29,1.78-3.36,1.76.07,3.8l51.34,30.52,41.63,24.77c2.35,1.4,2.35,1.38,4.08-.74l40-48.8,49.84-60.87,30.38-37.12q20.13-24.59,40.26-49.18a3.73,3.73,0,0,0,1.35-2.47A9.56,9.56,0,0,0,371.58,82.88Zm312,569.92c-6.79,1-13.59,2-20.38,3L635,659.88l-24.9,3.58L578.59,668l-28.21,4.1-28,4.05-28.21,4.09L466,684.37c-8.38,1.21-16.76,2.41-25.13,3.67-3.53.53-3.53.59-3.53,4.18v91.89c0,3.83.14,3.91,3.41,2.13l35.81-19.49,67.87-36.83Q581.19,710,618,690l64.72-35.09a5.27,5.27,0,0,0,2.38-1.74A1.39,1.39,0,0,0,683.61,652.8Zm-517.85,1.74q9,4.94,18.12,9.84,24.45,13.27,48.9,26.55,20.66,11.22,41.32,22.41l49.75,27,35.42,19.21q24.56,13.34,49.11,26.66c3.21,1.74,3.23,1.69,3.23-2q0-46.08,0-92.14c0-.56,0-1.12,0-1.68-.09-1.67-.26-1.88-1.94-2.13-2.85-.44-5.69-.84-8.54-1.25l-28-4.06-28.21-4.09-28.22-4.08-24.66-3.55-31.53-4.59q-14-2-28-4Q216.9,660.3,201.25,658c-10.75-1.56-21.49-3.14-32.25-4.65a19.32,19.32,0,0,0-5.15-.52C164.22,654,165.09,654.17,165.76,654.54ZM774.4,265.23v14.44h.2V265.14ZM74.92,386.61V372.17h-.2V386.7ZM774.08,493.76V479.24h-.19v14.52ZM75.4,600.69V586.26h-.2v14.52Z" transform="translate(-74.72 -62.48)"/></svg>