<svg id="D4" xmlns="http://www.w3.org/2000/svg" viewBox="0 0 774.75 798.81"><path d="M441,826.23c-3.4.19-6.23-1.15-8.84-3.16q-13.2-10.19-26.42-20.35-21.37-16.47-42.74-33L277.1,703.53l-99.74-76.91L91.49,560.41,60.15,536.22a20.61,20.61,0,0,1-3-2.7c-4.26-4.85-4.49-12.66-.35-18.23s8.46-11,12.72-16.55L151.16,393l87.41-113.18,65.12-84.3,81.7-105.75q21.35-27.63,42.68-55.25a16.75,16.75,0,0,1,9.69-6.64c6.43-1.44,11.67.92,15.73,5.84,3.82,4.63,7.38,9.46,11.05,14.2l80.39,104q26.1,33.81,52.19,67.61,35.05,45.38,70.13,90.74,23.68,30.66,47.36,61.34l75,97q17.59,22.78,35.18,45.58a17.21,17.21,0,0,1,3.2,6.38c1.56,6.18-.14,11.2-5.16,15.09q-10,7.71-19.95,15.38L697.61,632.26Q664.18,658,630.72,683.81L525.87,764.7,463.16,813c-4.25,3.27-8.5,6.53-12.72,9.83C447.65,825,444.6,826.47,441,826.23ZM455.2,785.5c.84-.61,1.49-1.06,2.12-1.54l45.78-35.31,112.29-86.56L721,580.62q36.75-28.35,73.53-56.68c2.88-2.23,2.78-1.77.65-4.52l-38.14-49.35q-33.22-43-66.44-86L602,269.38l-61.6-79.74L457,81.6c-.56-.73-1.16-1.44-1.88-2.33C454.56,83.18,454.63,783.35,455.2,785.5Zm-27.84.31a9.08,9.08,0,0,0,.29-3.44c-.15-99.76.05-199.51-.2-299.26-.33-129.76-.13-259.51-.16-389.27,0-4.08,0-8.16,0-12.24,0-.57.25-1.27-.56-1.81-1.43,1.84-2.86,3.65-4.27,5.47q-26.1,33.81-52.2,67.61-42.45,55-84.93,109.94L203.31,369,111.77,487.42Q99.22,503.67,86.69,519.9c-1.57,2-1.55,2,.38,3.53l13.3,10.25L207.14,616l66.32,51.11L366,738.51l51.29,39.57C420.55,780.61,423.85,783.12,427.36,785.81Z" transform="translate(-53.77 -27.45)"/></svg>