<svg id="D4" xmlns="http://www.w3.org/2000/svg" viewBox="0 0 712.95 707.8"><path d="M419.29,71a5.8,5.8,0,0,1,.37,3.12q0,41.39,0,82.78,0,16.32,0,32.63c.59,195.22.22,390.44.32,585.67,0,1.21.64,2.93-.65,3.51-1.07.48-2.05-1-3-1.7q-46.95-36.16-93.88-72.37-30.78-23.73-61.59-47.43L159.47,579,78.12,516.28c-2.22-1.72-2.24-1.74-.57-3.91q9.23-12,18.47-23.93l36.24-46.89L203,350.07q21.72-28.1,43.42-56.2Q281.85,248,317.3,202.2l47.23-61.14q26.48-34.26,53-68.52A3.39,3.39,0,0,1,419.29,71Zm26.68.73c-.05,1-.1,1.91-.1,2.87q0,50.73,0,101.48,0,157.38-.05,314.75,0,142.5,0,285c0,1-.52,2.33.54,2.84s1.68-.69,2.41-1.25l91.58-70.61,95.59-73.64L726,563.73q30.69-23.65,61.37-47.3c2.7-2.08,2.38-2,.5-4.43q-15.76-20.42-31.55-40.8L666.37,354.84l-65.14-84.27q-45-58.17-89.93-116.35L451,76.19q-1.68-2.19-3.39-4.36c-.29-.36-.57-.78-1.09-.82A.75.75,0,0,0,446,71.71Z" transform="translate(-76.37 -70.98)"/></svg>