<svg id="D6" xmlns="http://www.w3.org/2000/svg" viewBox="0 0 725 734.06"><path d="M445.45,553.9V324.73c0-5.49.12-4.51,4.05-6q43.9-16.47,87.85-32.87l97.51-36.45,98.65-36.85,56.85-21.25c.9-.33,1.79-.69,2.71-1,1.52-.44,1.81-.23,1.91,1.41.06,1,0,1.92,0,2.88,0,91-.11,181.9.14,272.85.11,41.27.1,82.54.25,123.81,0,4.43.11,3.75-3.4,5.69l-83.61,46.11-74.8,41.23-84.47,46.56-88.87,49c-3.85,2.12-7.69,4.27-11.54,6.39a16.1,16.1,0,0,1-1.7.88c-1.07.43-1.46.21-1.57-1-.08-1,0-1.92,0-2.88V553.9Zm-25.3-69.37,0-161c0-3.33,0-3.32-3.09-4.46l-15.27-5.72L295.68,273.7,179.74,230.34q-51-19.08-102-38.12c-1.79-.67-3.6-1.33-5.4-2-1-.36-1.58,0-1.66,1s-.09,2.07-.09,3.11Q70.49,393,70.43,591.58c0,3.73-.63,3.31,3.32,5.5l.43.23,35.09,19.33L154,641.32l39.93,22q24,13.27,48.1,26.55,25,13.77,50,27.54,31,17.08,62,34.2l60.1,33.13c1.47.81,2.93,1.64,4.44,2.37,1.08.53,1.44.29,1.54-.91.07-.88,0-1.76,0-2.64v-299ZM772.56,169.19c-1.51-.54-3-1.1-4.52-1.61l-71.26-24.39-90.1-30.84q-35.52-12.16-71-24.3Q485.72,71,435.79,53.86a8.66,8.66,0,0,0-6,0Q381.47,70.51,333.12,87l-69.45,23.77-108,37L94.14,168.81c-.8.27-1.74.34-2.28,1.24.34.77,1.08.91,1.72,1.16,1.94.75,3.89,1.48,5.84,2.21L194,208.74l76.62,28.65,85.83,32.08q36.63,13.69,73.24,27.41a8.42,8.42,0,0,0,6.43-.05q34.11-12.87,68.29-25.58l98.64-36.85,88.3-33,80.45-30c.72-.27,1.57-.4,2-1.18C773.67,169.44,773.07,169.37,772.56,169.19Z" transform="translate(-70.39 -53.32)"/></svg>