<svg id="D8" xmlns="http://www.w3.org/2000/svg" viewBox="0 0 610.22 731.8"><path d="M422.36,536.73H136.62c-.88,0-1.76,0-2.64,0-1.59-.1-1.77-.47-1-1.94.2-.34.42-.67.63-1l53.58-87q37.54-61,75.1-122,35-56.91,70.07-113.8L398.58,103.5q11.07-18,22.15-35.95l.38-.62c1.34-2.11,1.66-2.11,3,.1q5.69,9.19,11.33,18.39l56.76,92.12q21.45,34.85,42.88,69.68,28.18,45.77,56.38,91.51l39,63.34q25.15,40.86,50.33,81.71,15.35,24.93,30.68,49.86c.48.78,1.47,1.6.94,2.55s-1.74.53-2.66.53H422.36ZM696.49,562H555.89q-203.7,0-407.41,0c-1,0-2.45-.53-2.82.5s1.08,1.58,1.83,2.22q20.56,17.48,41.18,34.9l39.2,33.15Q250.57,652,273.26,671.2t45.6,38.58l36.26,30.69,28.75,24.33q18.4,15.57,36.82,31.14c1.95,1.65,2,1.63,4-.08q11.52-9.76,23.05-19.55,28.84-24.4,57.7-48.81,32.13-27.19,64.24-54.43,31.13-26.36,62.26-52.7,32-27,63.91-54.09a23.78,23.78,0,0,0,4.21-3.91A7,7,0,0,0,696.49,562Zm28.45-57.7c0-3.92.19-7.83.28-11.75.3-13.35.14-26.7.56-40.06.33-10.46.08-20.94.4-31.42.4-13.18.14-26.38.56-39.57.32-10.31.09-20.63.39-30.94.4-13.51.15-27,.56-40.54.16-5.16.68-3.89-3.53-7.36-10.11-8.35-20.28-16.63-30.42-24.95q-27.53-22.59-55.06-45.2-20.49-16.82-41-33.6l-55.25-45.35-36.35-29.82q-15.75-12.93-31.54-25.84c-.51-.42-.94-1.13-2.24-.75q126,204.59,251.87,409A1.85,1.85,0,0,0,724.94,504.25ZM370,98.37q-8.73,7.14-17.42,14.31l-80.3,65.87q-32.55,26.7-65.12,53.38-43.68,35.81-87.37,71.61a5.33,5.33,0,0,0-2.23,4.68c.25,10.07.09,20.15.44,30.22.42,11.59.07,23.19.48,34.78.42,11.9.06,23.82.48,35.74.42,11.66.27,23.34.44,35,.25,16.87.56,33.74.65,50.61,0,3,0,6.08.06,9.12a2.5,2.5,0,0,0,.85,2.5Q247,301.61,372.61,97A4.33,4.33,0,0,0,370,98.37Z" transform="translate(-117.58 -65.36)"/></svg>